<svg xmlns="http://www.w3.org/2000/svg" xmlns:xlink="http://www.w3.org/1999/xlink" preserveAspectRatio="xMidYMid" width="30" height="30" viewBox="0 0 30 30">
  <defs>
    <style>
      .cls-1 {
        fill: #999;
        fill-rule: evenodd;
      }
    </style>
  </defs>
  <path d="M15.000,-0.000 C6.716,-0.000 -0.000,6.716 -0.000,15.000 C-0.000,23.284 6.716,30.000 15.000,30.000 C23.284,30.000 30.000,23.284 30.000,15.000 C30.000,6.716 23.284,-0.000 15.000,-0.000 ZM10.992,18.158 C9.281,18.158 7.895,16.746 7.895,15.001 C7.895,13.256 9.281,11.842 10.992,11.842 C12.703,11.842 14.090,13.256 14.090,15.001 C14.090,16.746 12.703,18.158 10.992,18.158 ZM19.007,18.158 C17.296,18.158 15.908,16.746 15.908,15.001 C15.908,13.256 17.296,11.842 19.007,11.842 C20.717,11.842 22.105,13.256 22.105,15.001 C22.105,16.746 20.717,18.158 19.007,18.158 Z" class="cls-1"/>
</svg>
