<svg xmlns="http://www.w3.org/2000/svg" xmlns:xlink="http://www.w3.org/1999/xlink" preserveAspectRatio="xMidYMid" width="30" height="30" viewBox="0 0 30 30">
  <defs>
    <style>
      .cls-1 {
        fill: #999;
        fill-rule: evenodd;
      }
    </style>
  </defs>
  <path d="M15.000,-0.000 C6.716,-0.000 0.000,6.716 0.000,15.000 C0.000,23.284 6.716,30.000 15.000,30.000 C23.284,30.000 30.000,23.284 30.000,15.000 C30.000,6.716 23.284,-0.000 15.000,-0.000 ZM18.553,10.365 L16.298,10.365 C16.031,10.365 15.734,10.716 15.734,11.185 L15.734,12.813 L18.553,12.813 L18.553,15.135 L15.734,15.135 L15.734,22.106 L13.071,22.106 L13.071,15.135 L10.658,15.135 L10.658,12.813 L13.071,12.813 L13.071,11.448 C13.071,9.488 14.431,7.895 16.298,7.895 L18.553,7.895 L18.553,10.365 Z" class="cls-1"/>
</svg>
