<svg xmlns="http://www.w3.org/2000/svg" xmlns:xlink="http://www.w3.org/1999/xlink" preserveAspectRatio="xMidYMid" width="30" height="30" viewBox="0 0 30 30">
  <defs>
    <style>
      .cls-1 {
        fill: #999;
        fill-rule: evenodd;
      }
    </style>
  </defs>
  <path d="M15.000,-0.000 C6.716,-0.000 0.000,6.716 0.000,15.000 C0.000,23.284 6.716,30.000 15.000,30.000 C23.285,30.000 30.000,23.284 30.000,15.000 C30.000,6.716 23.285,-0.000 15.000,-0.000 ZM11.329,21.217 L8.291,21.217 L8.291,11.442 L11.329,11.442 L11.329,21.217 ZM9.790,10.243 C8.830,10.243 8.211,9.564 8.211,8.725 C8.211,7.864 8.850,7.205 9.829,7.205 C10.809,7.205 11.409,7.864 11.428,8.725 C11.428,9.564 10.809,10.243 9.790,10.243 ZM22.421,21.217 L19.383,21.217 L19.383,15.800 C19.383,14.540 18.943,13.680 17.844,13.680 C17.004,13.680 16.505,14.261 16.285,14.820 C16.205,15.020 16.185,15.301 16.185,15.580 L16.185,21.217 L13.147,21.217 L13.147,14.560 C13.147,13.342 13.107,12.322 13.067,11.442 L15.705,11.442 L15.845,12.802 L15.905,12.802 C16.305,12.162 17.284,11.223 18.924,11.223 C20.922,11.223 22.421,12.562 22.421,15.439 L22.421,21.217 Z" class="cls-1"/>
</svg>
