<svg xmlns="http://www.w3.org/2000/svg" xmlns:xlink="http://www.w3.org/1999/xlink" preserveAspectRatio="xMidYMid" width="30" height="30" viewBox="0 0 30 30">
  <defs>
    <style>
      .cls-1 {
        fill: #999;
        fill-rule: evenodd;
      }
    </style>
  </defs>
  <path d="M15.000,-0.000 C6.715,-0.000 0.000,6.716 0.000,15.000 C0.000,23.284 6.715,30.000 15.000,30.000 C23.284,30.000 30.000,23.284 30.000,15.000 C30.000,6.716 23.284,-0.000 15.000,-0.000 ZM21.100,12.289 C21.107,12.415 21.109,12.543 21.109,12.671 C21.109,16.574 18.137,21.076 12.703,21.076 C11.035,21.076 9.482,20.586 8.175,19.749 C8.406,19.776 8.641,19.790 8.879,19.790 C10.264,19.790 11.537,19.319 12.549,18.525 C11.256,18.502 10.165,17.648 9.789,16.474 C9.969,16.508 10.154,16.528 10.345,16.528 C10.614,16.528 10.875,16.491 11.123,16.424 C9.772,16.152 8.753,14.958 8.753,13.526 C8.753,13.514 8.753,13.502 8.754,13.489 C9.152,13.711 9.608,13.844 10.092,13.859 C9.299,13.329 8.778,12.425 8.778,11.400 C8.778,10.859 8.923,10.351 9.177,9.914 C10.634,11.702 12.811,12.878 15.267,13.001 C15.216,12.785 15.190,12.560 15.190,12.328 C15.190,10.696 16.513,9.374 18.145,9.374 C18.994,9.374 19.762,9.733 20.301,10.307 C20.974,10.174 21.606,9.929 22.177,9.590 C21.956,10.279 21.488,10.859 20.878,11.225 C21.476,11.153 22.045,10.995 22.575,10.760 C22.179,11.352 21.678,11.872 21.100,12.289 Z" class="cls-1"/>
</svg>
